<svg width="100" height="100" viewBox="0 0 100 100" fill="none" xmlns="http://www.w3.org/2000/svg">
<rect width="100" height="100" rx="20" fill="#6366F1"/>
<path d="M30 40C30 36.6863 32.6863 34 36 34H64C67.3137 34 70 36.6863 70 40V60C70 63.3137 67.3137 66 64 66H36C32.6863 66 30 63.3137 30 60V40Z" fill="white"/>
<path d="M38 44C38 42.8954 38.8954 42 40 42H60C61.1046 42 62 42.8954 62 44V46C62 47.1046 61.1046 48 60 48H40C38.8954 48 38 47.1046 38 46V44Z" fill="#6366F1"/>
<path d="M38 52C38 50.8954 38.8954 50 40 50H60C61.1046 50 62 50.8954 62 52V54C62 55.1046 61.1046 56 60 56H40C38.8954 56 38 55.1046 38 54V52Z" fill="#6366F1"/>
<path d="M38 58C38 56.8954 38.8954 56 40 56H50C51.1046 56 52 56.8954 52 58V60C52 61.1046 51.1046 62 50 62H40C38.8954 62 38 61.1046 38 60V58Z" fill="#6366F1"/>
</svg>